<svg width="14" height="14" viewBox="0 0 14 14" fill="none" xmlns="http://www.w3.org/2000/svg">
<g id="icon">
<path d="M2.8 5.6C2.8 5.2134 3.1134 4.9 3.5 4.9H7C7.3866 4.9 7.7 5.2134 7.7 5.6C7.7 5.9866 7.3866 6.3 7 6.3H3.5C3.1134 6.3 2.8 5.9866 2.8 5.6Z" fill="#F56630"/>
<path d="M3.5 7.7C3.1134 7.7 2.8 8.0134 2.8 8.4C2.8 8.7866 3.1134 9.1 3.5 9.1H9.8C10.1866 9.1 10.5 8.7866 10.5 8.4C10.5 8.0134 10.1866 7.7 9.8 7.7H3.5Z" fill="#F56630"/>
<path fill-rule="evenodd" clip-rule="evenodd" d="M0 7C0 3.13401 3.13401 0 7 0C10.866 0 14 3.13401 14 7C14 10.866 10.866 14 7 14C6.41737 14 5.85045 13.9287 5.30788 13.7939L1.42714 13.3088C0.588345 13.204 0.00541046 12.4221 0.14438 11.5883L0.384402 10.1482C0.385793 10.1398 0.385966 10.1313 0.384917 10.1229L0.206067 8.69212C0.0713319 8.14955 0 7.58263 0 7ZM7 1.4C3.90721 1.4 1.4 3.90721 1.4 7C1.4 7.48058 1.46038 7.94606 1.57361 8.38968L1.58449 8.43231L1.77411 9.94927C1.79194 10.092 1.78899 10.2365 1.76535 10.3783L1.52533 11.8184C1.51716 11.8675 1.55145 11.9135 1.60079 11.9197L5.56769 12.4155L5.61032 12.4264C6.05394 12.5396 6.51942 12.6 7 12.6C10.0928 12.6 12.6 10.0928 12.6 7C12.6 3.90721 10.0928 1.4 7 1.4Z" fill="#F56630"/>
</g>
</svg>
